<?xml version="1.0" encoding="UTF-8"?>
<svg id="uuid-5e4f313d-d2f8-4f8d-b3fd-fd324d087b33" data-name="uuid-6d6f1d5d-86a4-40ee-b27d-4f2a00d5db77" xmlns="http://www.w3.org/2000/svg" viewBox="0 0 993 325.7">
  <g id="uuid-5190262a-a143-45c2-9073-6f92c7f3b248" data-name="uuid-d2f0b432-c7e7-492f-abbe-3340d8ae223d">
    <g id="uuid-13572798-ad36-46b0-9220-4e8ac0623f3d" data-name="uuid-3aae2e3d-efae-4a8f-935d-c9ef9566e7af">
      <g>
        <path d="M265.7,128.5h80.5v30.2h-80.5v73.8h104.2v-125.9h-104.2v21.8h0v.1ZM346.2,210.7h-56.9v-30.2h56.9v30.2ZM389.2,48.2h23.6v184.3h-23.6V48.2ZM432.1,106.6h23.6v125.9h-23.6v-125.9ZM498.7,106.6v-58.5h-23.6v184.4h104.2v-126h-80.6v.1h0ZM555.6,210.7h-56.9v-82.3h56.9v82.3ZM598.6,106.6h77.6v21.8h-54v104.1h-23.6v-125.9h0ZM684.8,128.5h80.5v30.2h-80.5v73.8h104.2v-125.9h-104.2v21.8h0v.1ZM765.3,210.7h-56.9v-30.2h56.9v30.2ZM868.4,106.6h11.8v21.8h-36.2v82.3h36.2v21.8h-59.9v-104.1h-12.1v-21.8h12.1v-58.5h23.6v58.5h24.5ZM993,180.7v-74.1h-104.2v10.9h0v115h104.2v-21.8h-80.5v-30h80.5ZM912.5,128.5h56.9v30.5h-56.9v-30.5ZM444.5,62.1h11.8v21.8h-24.2v-21.8h12.4Z" fill="#071932"/>
        <g>
          <polygon points="47.2 139.5 0 93 47.2 46.5 93.7 93 47.2 139.5" fill="#af283c"/>
          <polygon points="47.2 232.6 93.7 279 140.1 232.5 93.7 186.1 47.2 232.6" fill="#af283c"/>
          <polygon points="186.9 186 140.1 232.5 186.9 279 233.4 232.5 186.9 186 186.9 186" fill="#af283c"/>
          <path d="M186.9,93l-46.2-46.5L186.9,0l46.5,46.4-46.5,46.5h0v.1ZM93.7,93l-46.5-46.5L93.7,0l47,46.4-47,46.5h0v.1ZM0,186.1l47.2,46.5,46.5-46.5-46.5-46.6L0,186.1ZM140.1,232.5l-46.4,46.6,46.4,46.6,46.7-46.6-46.7-46.6h0Z" fill="#d7324b"/>
        </g>
      </g>
    </g>
  </g>
</svg>